<svg xmlns="http://www.w3.org/2000/svg" width="256" height="256" viewBox="0 0 100 100"><rect width="100" height="100" rx="0" fill="#000000"></rect><path fill="#fff" d="M42.89 86.45L14.09 86.45L14.09 13.55L24.26 13.55L24.26 79.16L42.89 79.16L42.89 86.45ZM59.99 86.45L49.82 86.45L49.82 13.55L67.91 13.55Q74.48 13.55 78.39 15.93Q82.31 18.32 84.11 22.82Q85.91 27.32 85.91 33.71L85.91 33.71Q85.91 39.47 83.88 43.70Q81.86 47.93 77.90 50.22Q73.94 52.52 68 52.52L68 52.52L59.99 52.52L59.99 86.45ZM59.99 20.84L59.99 45.23L64.67 45.23Q69.08 45.23 71.60 44.24Q74.12 43.25 75.20 40.77Q76.28 38.30 76.28 33.80L76.28 33.80Q76.28 28.58 75.52 25.79Q74.75 23.00 72.32 21.92Q69.89 20.84 64.76 20.84L64.76 20.84L59.99 20.84Z"></path></svg>