<?xml version="1.0" encoding="UTF-8"?>
<svg id="Layer_9" data-name="Layer 9" xmlns="http://www.w3.org/2000/svg" viewBox="0 0 2560 2671.03">
  <defs>
    <style>
      .cls-1 {
        fill: lime;
      }

      .cls-2 {
        fill: #ec25ec;
      }
    </style>
  </defs>
  <rect x="-.05" y="-.49" width="2560" height="2671.51"/>
  <path class="cls-2" d="m777.04,1450.76c8.23,29.27,6.61,65.34-14.96,93.62-18.57,24.33-51.2,42.98-84.43,37.16-35.4-6.19-58.29-37.8-62.8-44.16-1.79-2.53-3.09-4.53-3.86-5.71-25.4-39.12-7.19-62.96-26.02-104.78-21.96-48.78-80.63-91.63-127.09-79.8-37.16,9.46-57.1,51.5-69.67,78-19.86,41.87-11.21,59.15-37.89,123.02-16,38.3-26.67,50.19-35.93,57.9-21.95,18.3-37.31,14.26-66.4,27.58-2.68,1.22-53.79,25.31-75.99,69.45-22.51,44.75-7.23,94.12,8.21,141.69,26.17,80.59,53.57,87.66,85.47,160.99,22.84,52.5,77.74,178.73,24.52,249.61-31.27,41.64-86.58,46.5-111.17,48.67-92.81,8.17-225.79-44.01-245.85-153.5-16.65-90.82,50.48-187.78,127.18-217.58,99.89-38.81,166.32,55.62,269.7,10.09,54.55-24.03,107.62-81.84,109-147.6,1.56-74.5-63.91-127.37-74.33-135.78-91.14-73.6-187.52-25.44-217.15-80.87-23.89-44.69,9.94-129.91,68.32-155.36,47.06-20.52,104.3-2.33,136.87,27.65,37.41,34.44,34.2,76.82,73.9,93.66,4.72,2,25.07,10.02,62.21.14,115.88-30.83,136.85-167.15,207.47-164.37,36.7,1.45,71.46,37.44,80.7,70.27Z"/>
  <path class="cls-1" d="m1736.67,998.71c24.37,51.12,37.85,78.26,67.5,84.72,53.44,11.64,131.69-49.97,153.56-117.51,20.8-64.26-24.07-88.67-3.51-148.03,22.09-63.78,108.19-113.95,190.41-114.33,64.44-.3,141.84,30.15,162.57,88.52,27.54,77.58-67.04,142.5-38.31,190.4,32.93,54.9,209.62,57.09,274.89-33.82,38.52-53.65,33.5-133.14-2.01-183.19-55.09-77.66-169.14-64.11-190.55-143.25-2.24-8.27-8.12-30.01,3.63-41.95,26.28-26.73,98.27,38.81,164.3,14.46,64.86-23.92,47.78-106.47,118.1-140.33,62.22-29.96,144.09,1.69,188.73,38.64,15.49,12.82,49.52,40.98,56.52,89.07,9.49,65.14-33.58,146.52-100.52,166.06-78.62,22.94-166.28-46.4-179.19-115.76-19.01-102.13,127.35-186.57,90.95-259.51-13.45-26.95-47.3-43.23-74.97-45.45-16.91-1.36-33.2,2.4-111.74,40.52-71.74,34.81-63.94,34.48-76.98,38.36-87.79,26.1-166.79-40.82-178.33-26.03-6.95,8.91,20.34,34.93,65.97,89.99,59.57,71.89,89.19,108.32,81.21,132.58-13.75,41.83-97.99,62.34-156.32,60.81-32.96-.86-44.22-8.41-84.2-17.85-50.81-11.99-181.52-34.92-204.16-2.6-37.09,52.95,240.34,219.29,202,289.31-34.05,62.2-306.78,29.19-328.53-57.08-4.88-19.34,4.46-35.02,2.36-105.45-1.44-48.52-2.44-72.9-15.78-78.75-24.35-10.67-85.6,32.38-112.21,87.1-35.85,73.73.75,149.34,34.61,220.36Z"/>
  <path class="cls-1" d="m2323.49,2346.38c-91.79,23.58-88.01,268.02-143.69,270.39-13.77.59-24.51-14.63-25.68-16.29-21.93-31.06,23.27-72.75,16.07-127.84-5.88-45.03-45.58-89.91-73.15-86.32-43.59,5.68-89.8,136.84-41.04,179.17,21.99,19.09,65.91,22.38,94.9,5.91,20.89-11.87,21.38-26.82,39.31-30.57,23.76-4.97,37.63,18.21,73.04,35.24,8.73,4.2,68.1,34.71,102.09,12.78,45.94-29.64,14.11-98.92,67.04-150.8,33.05-32.4,82.08-41.27,89.93-30.36,11.31,15.7-67.52,65.87-55.29,110.17,13.06,47.28,114.87,33.63,130.78,83.55,10.83,33.98-21.84,85.8-65.84,99.19-58.76,17.88-107.84-36.77-111.01-40.44-23.96-27.71-10.96-40.42-45.35-121.25-17.09-40.16-24.73-47.46-21.86-64.79,7.14-43.05,63.28-52.18,62.01-78.92-1.18-24.97-52.13-59.12-92.28-48.8Z"/>
</svg>