<?xml version="1.0" encoding="UTF-8"?>
<svg xmlns="http://www.w3.org/2000/svg" viewBox="0 0 2560 1600">
  <defs>
    <style>
      .cls-1 {
        fill: lime;
      }

      .cls-2 {
        fill: #ec25ec;
      }
    </style>
  </defs>
  <g id="Layer_5" data-name="Layer 5">
    <rect x="-.05" y="-.49" width="2560" height="1600"/>
  </g>
  <g id="Layer_9" data-name="Layer 9">
    <path class="cls-1" d="m1542.29,741.76c24.37,51.12,37.85,78.26,67.5,84.72,53.44,11.64,131.69-49.97,153.56-117.51,20.8-64.26-24.07-88.67-3.51-148.03,22.09-63.78,108.19-113.95,190.41-114.33,64.44-.3,141.84,30.15,162.57,88.52,27.54,77.58-67.04,142.5-38.31,190.4,32.93,54.9,209.62,57.09,274.89-33.82,38.52-53.65,33.5-133.14-2.01-183.19-55.09-77.66-169.14-64.11-190.55-143.25-2.24-8.27-8.12-30.01,3.63-41.95,26.28-26.73,98.27,38.81,164.3,14.46,64.86-23.92,47.78-106.47,118.1-140.33,62.22-29.96,144.09,1.69,188.73,38.64,15.49,12.82,49.52,40.98,56.52,89.07,9.49,65.14-33.58,146.52-100.52,166.06-78.62,22.94-166.28-46.4-179.19-115.76-19.01-102.13,127.35-186.57,90.95-259.51-13.45-26.95-47.3-43.23-74.97-45.45-16.91-1.36-33.2,2.4-111.74,40.52-71.74,34.81-63.94,34.48-76.98,38.36-87.79,26.1-166.79-40.82-178.33-26.03-6.95,8.91,20.34,34.93,65.97,89.99,59.57,71.89,89.19,108.32,81.21,132.58-13.75,41.83-97.99,62.34-156.32,60.81-32.96-.86-44.22-8.41-84.2-17.85-50.81-11.99-181.52-34.92-204.16-2.6-37.09,52.95,240.34,219.29,202,289.31-34.05,62.2-306.78,29.19-328.53-57.08-4.88-19.34,4.46-35.02,2.36-105.45-1.44-48.52-2.44-72.9-15.78-78.75-24.35-10.67-85.6,32.38-112.21,87.1-35.85,73.73.75,149.34,34.61,220.36Z"/>
    <path class="cls-2" d="m152.78,1202.57c-68.05,105.19,258.32,272.11,195.01,408.84-28.32,61.16-128.09,102.18-209.14,91.85-105.82-13.48-178.91-114.38-153.56-174.87,22.07-52.67,118.86-74.91,268.39-109.25,135.65-31.16,202.07-24.59,217.78-65.74,18.23-47.73-6.98-106.48-34.33-139.44-26.49-31.92-43.67-25.99-68.47-56.57-16.73-20.63-68.64-113.38-22.06-154.35,21.19-18.64,54.76-19.56,106.07-20.96,32.91-.9,49.83-1.37,68.99,6.04,45.17,17.45,37.78,53.5,74.66,68.49,35.4,14.39,90.15.65,120.44-27.77,45.24-42.45,32.28-114.28-17.08-150.84-50.7-37.55-136.27-35.28-164.8-4.47-33.98,36.7,36.3,88.71,16.4,196.22-6.26,33.82-14.68,79.27-51.91,97.06-52.29,24.98-102.24-32.83-199.79-25.47-39.7,3-119.42,19.21-146.59,61.21Z"/>
  </g>
</svg>