<?xml version="1.0" encoding="UTF-8"?>
<svg id="Layer_9" data-name="Layer 9" xmlns="http://www.w3.org/2000/svg" viewBox="0 0 2560 2657.49">
  <defs>
    <style>
      .cls-1 {
        fill: lime;
      }

      .cls-2 {
        fill: #ec25ec;
      }
    </style>
  </defs>
  <rect x="0" y=".21" width="2560" height="2656.79"/>
  <path class="cls-2" d="m1810.3,800c-19.95,42.95,74.41,92.18,62,165-12.5,73.33-119.75,91.22-112,129,6.79,33.1,97.04,58.02,140,25,20.26-15.57,13.77-31.54,34-67,36.24-63.52,80.73-53.77,113-105,37.43-59.42-5.21-99.84,31-146,40.78-51.98,140.37-58.72,166-25,16.72,21.99-10.89,44.29-2,99,9.5,58.48,45.79,62.2,59,117,17.15,71.12-34.8,102.91-13,146,23.14,45.74,108.78,63.5,172,39,88.73-34.39,105.17-141.12,109-166,8.15-52.94,6.19-156.15-58-191-42.83-23.26-94.03-5.77-108,0-107.99,44.62-98.62,174.02-197,210-4.95,1.81-69.36,24.45-121-6-85.96-50.69-37.07-189.81-121-242-53.55-33.3-137.87-16.72-154,18Z"/>
  <path class="cls-1" d="m212.09,1953.29c-33.9-86.38,58.52-170.03,19.63-211.79-32.75-35.15-122.92-20.99-171.85,26.02-66.13,63.55-58.76,173.49-17.94,241.88,53.85,90.2,178.46,130.74,217.68,96.13,35.56-31.38-25.61-101.11,17.41-185.15,30.67-59.92,105.02-108.99,160.12-93.75,18.48,5.11,39.82,18.85,51.69,39.53,10.96,19.12,5.45,29.56,11.76,74.3,6.25,44.26,10.27,72.79,29.29,80.94,20.23,8.67,46.4-10.44,52.06-14.57,27.21-19.87,34.55-50.17,37.29-62.22,10.02-44.13.71-114.31-42.65-129.84-40.51-14.51-92.93,25.06-118.61,62.73-48.11,70.56-4.1,136.91-40.83,166.12-43.96,34.96-172.67-7.85-205.04-90.33Z"/>
</svg>