<?xml version="1.0" encoding="UTF-8"?>
<svg xmlns="http://www.w3.org/2000/svg" viewBox="0 0 2560 1600">
  <defs>
    <style>
      .cls-1 {
        fill: lime;
      }

      .cls-2 {
        fill: #ec25ec;
      }
    </style>
  </defs>
  <g id="Layer_5" data-name="Layer 5">
    <rect x="-.05" y="-.49" width="2560" height="1600"/>
    <path class="cls-1" d="m1671.97,947.53c28.15,11.47,64.18,13.93,94.71-4.33,26.27-15.71,48.47-46.04,46.43-79.71-2.17-35.87-31-62.18-36.81-67.37-2.31-2.07-4.15-3.58-5.24-4.47-36.01-29.64-61.75-14.23-101.18-37.65-46-27.32-81.97-90.43-64.98-135.26,13.59-35.85,57.61-50.94,85.35-60.45,43.84-15.02,60.03-4.47,126.5-23.79,39.85-11.58,52.87-20.85,61.57-29.18,20.65-19.75,18.37-35.46,34.88-62.87,1.52-2.52,31.21-50.6,77.57-67.69,47-17.32,94.34,3.41,139.86,24.11,77.13,35.08,81.07,63.1,150.35,103.05,49.6,28.6,168.84,97.37,245.26,52.46,44.89-26.38,55.96-80.79,60.87-104.98,18.56-91.3-18.31-229.3-124.85-261.57-88.36-26.76-192.27,29.02-230.52,101.88-49.81,94.89,36.54,171.53-20.34,269.12-30.02,51.5-93.44,97.72-158.93,91.69-74.2-6.84-119.36-77.85-126.55-89.14-62.87-98.85-4.16-189.19-55.91-224.88-41.72-28.77-130.2-4.75-162.06,50.39-25.69,44.45-14.06,103.37,12.07,139.11,30.01,41.05,72.48,42.63,84.75,83.97,1.46,4.92,7.13,26.04-6.87,61.83-43.68,111.67-181.49,117.16-186.68,187.64-2.7,36.63,29.15,75.22,60.74,88.09Z"/>
  </g>
  <g id="Layer_9" data-name="Layer 9">
    <path class="cls-2" d="m197.62,1070.29c-88.25,131.63,330.47,337.6,248.1,508.53-36.85,76.46-165.47,128.29-269.67,115.96-136.04-16.1-229.38-141.43-196.36-217.04,28.75-65.84,153.41-94.21,346-138.06,174.71-39.77,260.11-32.03,280.6-83.45,23.77-59.65-8.27-132.75-43.22-173.65-33.87-39.63-56.01-32.11-87.7-70.08-21.39-25.62-87.53-140.92-27.34-192.33,27.38-23.39,70.57-24.76,136.59-26.86,42.34-1.35,64.11-2.04,88.71,7.07,57.99,21.46,48.24,66.46,95.58,84.91,45.45,17.7,115.97.21,155.12-35.44,58.48-53.25,42.3-142.73-20.95-187.99-64.96-46.48-175.07-43.07-211.97-4.46-43.96,46,46.1,110.38,19.77,244.59-8.28,42.22-19.41,98.95-67.44,121.39-67.43,31.51-131.3-40.25-256.84-30.41-51.09,4.01-153.76,24.77-188.99,77.32Z"/>
  </g>
</svg>