<?xml version="1.0" encoding="UTF-8"?>
<svg id="Layer_9" data-name="Layer 9" xmlns="http://www.w3.org/2000/svg" viewBox="0 0 2560 2671.03">
  <defs>
    <style>
      .cls-1 {
        fill: lime;
      }

      .cls-2 {
        fill: #ec25ec;
      }
    </style>
  </defs>
  <rect x="-.05" y="-.49" width="2560" height="2671.51"/>
  <path class="cls-2" d="m777.04,1450.76c8.23,29.27,6.61,65.34-14.96,93.62-18.57,24.33-51.2,42.98-84.43,37.16-35.4-6.19-58.29-37.8-62.8-44.16-1.79-2.53-3.09-4.53-3.86-5.71-25.4-39.12-7.19-62.96-26.02-104.78-21.96-48.78-80.63-91.63-127.09-79.8-37.16,9.46-57.1,51.5-69.67,78-19.86,41.87-11.21,59.15-37.89,123.02-16,38.3-26.67,50.19-35.93,57.9-21.95,18.3-37.31,14.26-66.4,27.58-2.68,1.22-53.79,25.31-75.99,69.45-22.51,44.75-7.23,94.12,8.21,141.69,26.17,80.59,53.57,87.66,85.47,160.99,22.84,52.5,77.74,178.73,24.52,249.61-31.27,41.64-86.58,46.5-111.17,48.67-92.81,8.17-225.79-44.01-245.85-153.5-16.65-90.82,50.48-187.78,127.18-217.58,99.89-38.81,166.32,55.62,269.7,10.09,54.55-24.03,107.62-81.84,109-147.6,1.56-74.5-63.91-127.37-74.33-135.78-91.14-73.6-187.52-25.44-217.15-80.87-23.89-44.69,9.94-129.91,68.32-155.36,47.06-20.52,104.3-2.33,136.87,27.65,37.41,34.44,34.2,76.82,73.9,93.66,4.72,2,25.07,10.02,62.21.14,115.88-30.83,136.85-167.15,207.47-164.37,36.7,1.45,71.46,37.44,80.7,70.27Z"/>
  <path class="cls-1" d="m2384.06,1944.27c-94.72-3.06-159.52,232.66-213.64,219.35-13.38-3.29-19.43-20.91-20.09-22.83-12.36-35.96,42.7-63.33,51.22-118.23,6.96-44.87-18.59-99.08-46.06-103.35-43.44-6.75-124.52,106.23-89.56,160.51,15.77,24.48,57.01,39.94,89.45,32.24,23.37-5.55,28.04-19.76,46.3-18.34,24.21,1.88,31.03,28.02,60.26,54.28,7.21,6.48,55.66,52.39,94.43,40.85,52.4-15.59,41.24-91.01,106.58-126,40.8-21.85,90.35-16.64,94.84-3.97,6.46,18.24-83.26,44.33-83.92,90.28-.7,49.04,100.87,64.45,102.16,116.82.88,35.65-44.99,76.25-90.98,76.79-61.41.71-93.23-65.49-95.25-69.91-15.24-33.31.79-41.87-9.59-129.09-5.16-43.34-10.46-52.48-2.84-68.32,18.91-39.33,75.36-32.38,81.63-58.4,5.86-24.3-33.5-71.35-74.92-72.69Z"/>
  <path class="cls-1" d="m1904.53,610.03c-29.09-6.73-121.75,124.8-76.6,192.38,37,55.39,149.25,41.87,211.09-5.34,53.76-41.04,79.54-115.27,66.8-124.69-20.7-15.3-198.77,102.03-201.29,259.18-1.15,71.99,30.15,175.55,119.35,216.43,96.22,44.11,235.86,4.3,259.18-77.49,9.31-32.66-26.77-49.45-32.95-119.35-2.92-32.98,2.08-56.81,11.68-100.74,23.31-106.69,52.32-120.56,45.32-168.24-8.77-59.72-65.55-114.71-95.3-105.99-31.37,9.19-41.02,91.64-24.05,154.08,21.61,79.48,97.32,166.9,172.79,158.54,91.75-10.17,158.04-159.14,133.6-264.53-24.15-104.14-133.53-151.23-114.9-191.49,11.04-23.86,61.99-34.42,100.64-19.59,112.72,43.24,108.57,297.68,105.99,456.02-2.49,152.9-3.82,234.28-52.55,259.18-101.95,52.11-260.15-220.26-407.92-177.24-153.25,44.61-146.05,384.98-220.88,383.88-51.84-.76-132.94-165.19-100.64-312.62,27.24-124.37,124.01-185.65,119.35-335.78-.73-23.55-2.26-72.79-18.7-76.6Z"/>
</svg>