<?xml version="1.0" encoding="UTF-8"?>
<svg id="Layer_9" data-name="Layer 9" xmlns="http://www.w3.org/2000/svg" viewBox="0 0 2560 2672">
  <defs>
    <style>
      .cls-1 {
        fill: lime;
      }

      .cls-2 {
        fill: #ec25ec;
      }
    </style>
  </defs>
  <rect x="0" y=".21" width="2560" height="2671.51"/>
  <path class="cls-2" d="m2554.91,1791.47c-19.37,65.64-10.11,89.09-26.41,97.1-22.87,11.24-68.59-17.77-92.72-59.3-36.33-62.55,4.34-104.78-31.8-162.8-27.19-43.64-67.84-48.04-72.77-91.28-1.66-14.55.22-37.86,11.32-43.03,27.59-12.86,78.35,102.21,116.43,90.12,18.6-5.9,30.96-41.12,23.18-65.7-3.49-11.04-16.46-37.04-127.75-52.91-124.72-17.79-188.82-28.33-220.47,12.21-53.39,68.38,28.66,173.36-17.79,228.5-60.55,71.87-291.97,2.72-304.56-90.7-9.54-70.77,105.62-162.02,142.31-140.7,23.62,13.72-1.26,64.77,28.57,106.4,39.77,55.52,155.59,64.64,229.64,12.21,59.97-42.46,48.33-101.7,139.61-187.8,17.62-16.62,58.66-55.32,75.47-43.61,18.69,13.03-2.28,81.65-5.93,93.61-19.13,62.59-56.25,99.28-69.54,156.98-10.88,47.26-2.32,64.37,0,68.61,19.99,36.59,83.48,46.99,121.83,22.09,37.9-24.61,30.05-80.57,54.98-84.31,18.38-2.75,41.02,23.75,46.9,50,5.47,24.45-6.35,36.39-20.48,84.31Z"/>
  <path class="cls-1" d="m469.06,882.79c5.93,14.79,15.52,40.33,40.51,48.15,39.41,12.32,100.22-25.17,130-73.64,27.76-45.18,15.73-115.29-27.92-143.14-59.36-37.88-163.34,11.1-213.31,68.22-50.44,57.67-26.7,101.77-74.19,137.29-58.39,43.68-169.41,33.19-198.32-14.7-24.45-40.51,24.69-83.2-2.12-148.47-12.85-31.28-42.36-65.86-68-60.8-23.3,4.6-36.54,40.58-62.06,112.32-26.9,75.6-40.26,87.39-37.43,112.02.96,8.34,6.85,59.53,48.72,71.68,22.66,6.58,53.56.84,70.71-17,18.93-19.7,6.7-44.06,7.51-82.84,1.81-86.2,66.21-156.41,92.31-184.86,44.32-48.32,66.48-72.48,95.69-72.86,78.32-1.03,165.72,168.46,197.89,248.64Z"/>
</svg>