<?xml version="1.0" encoding="UTF-8"?>
<svg id="Layer_5" data-name="Layer 5" xmlns="http://www.w3.org/2000/svg" viewBox="0 0 2540 1300">
  <defs>
    <style>
      .cls-1 {
        fill: #ec25ec;
      }
    </style>
  </defs>
  <path class="cls-1" d="m138,84.32c-22.99,16.9-83.76,68.77-101,264-16.63,188.34-33.72,381.82,83,447,106.03,59.21,281.09-10.57,362-119,69.88-93.65,24.06-155.22,90-251,90.02-130.77,307.52-207.89,423-131,122.41,81.5,97.96,314.6,89,400-18.13,172.78-81.29,210.44-51,312,45.95,154.09,235.14,214.2,266,224,31.47,10,192.66,61.21,282-19,14-12.56,22.36-24.88,30-37,86.02-136.42,124.78-317.49,154-469,26.21-135.91,26.95-155.78,50-196,63.95-111.59,172.11-157.27,201-169,50.31-20.44,106.5-43.26,168-25,59.91,17.79,92.95,65.08,135,130,132.23,204.14,198.34,306.21,195,357-13.56,206.29-285.68,314.72-314,326-47.27,18.83-204.36,81.43-298,8-21.9-17.18-41.05-42.36-73-142-40.34-125.83-51.87-216.88-64-289-5.34-31.73-44.26-254.63-154-490-52.41-112.4-76.34-131.94-94-143-116.09-72.69-307.15,4.44-417,99-126.2,108.63-227.99,311.49-204,502,7.62,60.51,25.63,101.54,0,131-51.5,59.2-237.61,23.89-338-73-30.47-29.41-47.85-59.48-114-120-40.65-37.19-53.56-43.65-73-70-12.15-16.46-53.92-77.4-52-148,2.97-109.34,107.77-132.97,99-216-6.44-60.98-69.97-114.5-134-128-73.41-15.47-132.24,24.89-146,35Z"/>
</svg>