<?xml version="1.0" encoding="UTF-8"?>
<svg id="Layer_5" data-name="Layer 5" xmlns="http://www.w3.org/2000/svg" viewBox="0 0 2041.95 1089">
  <defs>
    <style>
      .cls-1 {
        fill: lime;
      }
    </style>
  </defs>
  <path class="cls-1" d="m115.95,226C-.06,281.9,32.95,515.91,41.95,580c17.91,127.69,74.54,228.24,144,270,8.3,4.99,25.09,14.13,47,14,74.13-.44,142.06-106.57,121-142-17.35-29.18-83.51,9.03-131-32-40.7-35.16-46.07-109.87-24-124,17.35-11.11,43.72,20.3,132,71,55.47,31.86,102.71,59.03,162,73,76.81,18.09,140.89,6.49,180-1,132.39-25.35,219.84-95.16,223-90,2.94,4.8-78.76,55.47-171,139-73.21,66.29-109.79,100.17-109,136,1.67,75.35,133.05,149.91,250,154,152.93,5.35,292.77-109.38,331-232,6.26-20.09,7.59-61.67,10-144,2.91-99.55,5.51-188.4,0-285-13.7-240.42-67.78-353.81-42-365,36.06-15.66,109.8,193.93,337,370,223.21,172.98,377.35,146.5,413,139,32.23-6.78,87.13-18.32,94-49,7.41-33.11-44.92-71.54-477-280-154.09-74.34-221.5-105.19-266-73-55.58,40.2-38.93,152.3-32,199,13.63,91.82,62.35,207.79,109,205,31.64-1.89,57.56-56.75,61-100,4.36-54.74-25.65-111.51-42-109-43.51,6.67,20.11,431.37-45,446-32.29,7.26-80.48-89.91-145-220-40.06-80.77-66.71-154.52-120-302-40.37-111.71-42.54-127.62-38-130,8.67-4.54,47.72,37.2,63,89,19.56,66.33-6.56,126.45-19,154-47.01,104.15-157.75,194.48-204,170-38.12-20.18-30.71-117.46-28-153,2.57-33.79,9.72-61.14,15-81,14-52.64,36.89-107.3,41-106,4.33,1.37-3.07,67.67-42,129-21.16,33.34-44.61,54.13-54,62-48,40.26-79.5,37.43-178,86-64.36,31.74-68.88,41.81-70,49-7.25,46.47,106.55,105.98,141,124,51.38,26.87,74.42,29.48,111,62,26.66,23.7,58.05,51.61,57,87-1.04,34.86-35.03,60.24-103,111-30.98,23.13-50.25,37.32-81,50-36.91,15.23-75.39,31.1-118,17-45.93-15.2-68.26-55.81-73-65-12.31-23.87-17.09-51.26-7-134,8.45-69.31,18.51-105.07,23-132,23.5-140.98-67.72-267.24-72-273-65.1-87.59-204.68-183.93-300-138Z"/>
</svg>