<?xml version="1.0" encoding="UTF-8"?><svg id="Layer_10" xmlns="http://www.w3.org/2000/svg" width="870" height="160" viewBox="0 0 870 160"><defs><style>.cls-1{fill:#fff;}</style></defs><path class="cls-1" d="m16.55,26.36h15.82v102.06h28.98v11.34H16.55V26.36Z"/><path class="cls-1" d="m90.05,26.36h15.26l24.22,113.4h-14.98l-5.18-28.56h-23.1l-5.46,28.56h-14.84l24.08-113.4Zm17.22,73.5l-9.52-51.1-9.38,51.1h18.9Z"/><path class="cls-1" d="m140.03,101.54V26.36h15.12v75.88c0,14.7,1.82,26.32,15.12,26.32s15.12-11.62,15.12-26.32V26.36h14.98v75.18c0,23.8-5.46,39.48-30.1,39.48s-30.24-15.68-30.24-39.48Z"/><path class="cls-1" d="m217.03,26.36h22.82c22.68,0,33.32,8.54,33.32,30.1,0,13.3-3.92,23.1-14,26.46l16.1,56.84h-15.26l-14.84-53.2h-12.32v53.2h-15.82V26.36Zm21.84,48.86c13.3,0,19.04-4.2,19.04-18.76,0-13.3-3.64-18.76-18.06-18.76h-7v37.52h6.02Z"/><path class="cls-1" d="m307.61,26.36h15.26l24.22,113.4h-14.98l-5.18-28.56h-23.1l-5.46,28.56h-14.84l24.08-113.4Zm17.22,73.5l-9.52-51.1-9.38,51.1h18.9Z"/><path class="cls-1" d="m390.63,26.36h28.14c20.3,0,28,11.62,28,31.36,0,18.06-9.38,29.26-27.86,29.26h-12.46v52.78h-15.82V26.36Zm23.1,49.28c13.58,0,18.06-3.78,18.06-17.78,0-16.1-2.1-20.16-17.92-20.16h-7.42v37.94h7.28Z"/><path class="cls-1" d="m457.83,26.36h43.96v11.76h-28.14v37.52h22.82v11.2h-22.82v41.58h28.42v11.34h-44.24V26.36Z"/><path class="cls-1" d="m511.45,107.98l14-3.78c.84,12.18,3.92,24.36,16.1,24.36,8.12,0,12.46-4.62,12.46-13.3,0-10.22-5.18-15.54-12.32-21.84l-19.04-16.8c-7.56-6.58-10.92-13.72-10.92-25.06,0-16.66,10.22-26.18,26.6-26.18,18.06,0,26.74,9.38,28.56,29.26l-13.44,3.64c-.84-11.2-3.36-20.72-15.12-20.72-7.84,0-12.46,4.2-12.46,12.46,0,6.86,2.1,10.78,7.42,15.4l19.18,16.8c8.54,7.56,16.24,17.64,16.24,31.78,0,16.8-11.34,27.02-27.16,27.02-19.74,0-28.98-13.44-30.1-33.04Z"/><path class="cls-1" d="m598.94,26.36h15.26l24.22,113.4h-14.98l-5.18-28.56h-23.1l-5.46,28.56h-14.84l24.08-113.4Zm17.22,73.5l-9.52-51.1-9.38,51.1h18.9Z"/><path class="cls-1" d="m649.9,26.36h10.78l32.2,75.32V26.36h13.16v113.4h-10.08l-32.62-77.42v77.42h-13.44V26.36Z"/><path class="cls-1" d="m723.82,26.36h24.64c25.2,0,33.6,11.62,33.6,34.58v41.72c0,24.08-8.54,37.1-32.34,37.1h-25.9V26.36Zm24.78,102.06c17.22,0,17.5-10.36,17.5-28.7v-36.82c0-17.5-1.68-24.78-17.92-24.78h-8.54v90.3h8.96Z"/><path class="cls-1" d="m795.5,104.2v-42.98c0-22.4,8.12-35.84,31.08-35.84s30.94,13.58,30.94,35.84v43.12c0,22.26-8.12,36.68-30.94,36.68s-31.08-14.28-31.08-36.82Zm46.06,3.5v-49.7c0-12.6-2.38-20.3-14.98-20.3s-15.12,7.7-15.12,20.3v49.7c0,12.6,2.38,20.86,15.12,20.86s14.98-8.26,14.98-20.86Z"/></svg>